<svg width="22" height="22" viewBox="0 0 22 22" fill="none" xmlns="http://www.w3.org/2000/svg">
<path d="M13.75 21.5H7.75C2.32 21.5 0 19.18 0 13.75V7.75C0 2.32 2.32 0 7.75 0H13.75C19.18 0 21.5 2.32 21.5 7.75V13.75C21.5 19.18 19.18 21.5 13.75 21.5ZM7.75 1.5C3.14 1.5 1.5 3.14 1.5 7.75V13.75C1.5 18.36 3.14 20 7.75 20H13.75C18.36 20 20 18.36 20 13.75V7.75C20 3.14 18.36 1.5 13.75 1.5H7.75Z" fill="#292D32"/>
<path d="M12.6704 14.8797H7.75039C7.34039 14.8797 7.00039 14.5397 7.00039 14.1297C7.00039 13.7197 7.34039 13.3797 7.75039 13.3797H12.6704C13.9504 13.3797 15.0004 12.3397 15.0004 11.0497C15.0004 9.75973 13.9604 8.71973 12.6704 8.71973H5.90039C5.49039 8.71973 5.15039 8.37973 5.15039 7.96973C5.15039 7.55973 5.49039 7.21973 5.90039 7.21973H12.6704C14.7804 7.21973 16.5004 8.93973 16.5004 11.0497C16.5004 13.1597 14.7804 14.8797 12.6704 14.8797Z" fill="#292D32"/>
<path d="M7.31945 10.2703C7.12945 10.2703 6.93945 10.2003 6.78945 10.0503L5.21945 8.48032C4.92945 8.19032 4.92945 7.71031 5.21945 7.42031L6.78945 5.85031C7.07945 5.56031 7.55945 5.56031 7.84945 5.85031C8.13945 6.14031 8.13945 6.62032 7.84945 6.91032L6.80945 7.95031L7.84945 8.99031C8.13945 9.28031 8.13945 9.76032 7.84945 10.0503C7.70945 10.1903 7.51945 10.2703 7.31945 10.2703Z" fill="#292D32"/>
</svg>
