<svg width="22" height="22" viewBox="0 0 22 22" fill="none" xmlns="http://www.w3.org/2000/svg">
<path d="M8.16986 14.5804C7.97986 14.5804 7.78986 14.5104 7.63986 14.3604C7.34986 14.0704 7.34986 13.5904 7.63986 13.3004L13.2999 7.64035C13.5899 7.35035 14.0699 7.35035 14.3599 7.64035C14.6499 7.93035 14.6499 8.41035 14.3599 8.70035L8.69986 14.3604C8.55986 14.5104 8.35986 14.5804 8.16986 14.5804Z" fill="#292D32"/>
<path d="M13.8299 14.5804C13.6399 14.5804 13.4499 14.5104 13.2999 14.3604L7.63986 8.70035C7.34986 8.41035 7.34986 7.93035 7.63986 7.64035C7.92986 7.35035 8.40986 7.35035 8.69986 7.64035L14.3599 13.3004C14.6499 13.5904 14.6499 14.0704 14.3599 14.3604C14.2099 14.5104 14.0199 14.5804 13.8299 14.5804Z" fill="#292D32"/>
<path d="M14 21.75H8C2.57 21.75 0.25 19.43 0.25 14V8C0.25 2.57 2.57 0.25 8 0.25H14C19.43 0.25 21.75 2.57 21.75 8V14C21.75 19.43 19.43 21.75 14 21.75ZM8 1.75C3.39 1.75 1.75 3.39 1.75 8V14C1.75 18.61 3.39 20.25 8 20.25H14C18.61 20.25 20.25 18.61 20.25 14V8C20.25 3.39 18.61 1.75 14 1.75H8Z" fill="#292D32"/>
</svg>