<svg width="22" height="22" viewBox="0 0 22 22" fill="none" xmlns="http://www.w3.org/2000/svg">
<path d="M10.75 21.5C4.82 21.5 0 16.68 0 10.75C0 4.82 4.82 0 10.75 0C16.68 0 21.5 4.82 21.5 10.75C21.5 16.68 16.68 21.5 10.75 21.5ZM10.75 1.5C5.65 1.5 1.5 5.65 1.5 10.75C1.5 15.85 5.65 20 10.75 20C15.85 20 20 15.85 20 10.75C20 5.65 15.85 1.5 10.75 1.5Z" fill="#5ABD5D"/>
<path d="M14.75 11.5H6.75C6.34 11.5 6 11.16 6 10.75C6 10.34 6.34 10 6.75 10H14.75C15.16 10 15.5 10.34 15.5 10.75C15.5 11.16 15.16 11.5 14.75 11.5Z" fill="#5ABD5D"/>
<path d="M10.75 15.5C10.34 15.5 10 15.16 10 14.75V6.75C10 6.34 10.34 6 10.75 6C11.16 6 11.5 6.34 11.5 6.75V14.75C11.5 15.16 11.16 15.5 10.75 15.5Z" fill="#5ABD5D"/>
</svg>
