<svg width="20" height="22" viewBox="0 0 20 22" fill="none" xmlns="http://www.w3.org/2000/svg">
<path d="M19.0002 5.73046C18.9802 5.73046 18.9502 5.73046 18.9202 5.73046C13.6302 5.20046 8.35016 5.00046 3.12016 5.53046L1.08016 5.73046C0.66016 5.77046 0.29016 5.47046 0.25016 5.05046C0.21016 4.63046 0.51016 4.27046 0.92016 4.23046L2.96016 4.03046C8.28016 3.49046 13.6702 3.70046 19.0702 4.23046C19.4802 4.27046 19.7802 4.64046 19.7402 5.05046C19.7102 5.44046 19.3802 5.73046 19.0002 5.73046Z" fill="#C42222"/>
<path d="M6.49977 4.72C6.45977 4.72 6.41977 4.72 6.36977 4.71C5.96977 4.64 5.68977 4.25 5.75977 3.85L5.97977 2.54C6.13977 1.58 6.35977 0.25 8.68976 0.25H11.3098C13.6498 0.25 13.8698 1.63 14.0198 2.55L14.2398 3.85C14.3098 4.26 14.0298 4.65 13.6298 4.71C13.2198 4.78 12.8298 4.5 12.7698 4.1L12.5498 2.8C12.4098 1.93 12.3798 1.76 11.3198 1.76H8.69977C7.63977 1.76 7.61977 1.9 7.46977 2.79L7.23977 4.09C7.17977 4.46 6.85977 4.72 6.49977 4.72Z" fill="#C42222"/>
<path d="M13.2099 21.7496H6.7899C3.2999 21.7496 3.1599 19.8196 3.0499 18.2596L2.3999 8.18959C2.3699 7.77959 2.6899 7.41959 3.0999 7.38959C3.5199 7.36959 3.8699 7.67959 3.8999 8.08959L4.5499 18.1596C4.6599 19.6796 4.6999 20.2496 6.7899 20.2496H13.2099C15.3099 20.2496 15.3499 19.6796 15.4499 18.1596L16.0999 8.08959C16.1299 7.67959 16.4899 7.36959 16.8999 7.38959C17.3099 7.41959 17.6299 7.76959 17.5999 8.18959L16.9499 18.2596C16.8399 19.8196 16.6999 21.7496 13.2099 21.7496Z" fill="#C42222"/>
<path d="M11.6601 16.25H8.33008C7.92008 16.25 7.58008 15.91 7.58008 15.5C7.58008 15.09 7.92008 14.75 8.33008 14.75H11.6601C12.0701 14.75 12.4101 15.09 12.4101 15.5C12.4101 15.91 12.0701 16.25 11.6601 16.25Z" fill="#C42222"/>
<path d="M12.5 12.25H7.5C7.09 12.25 6.75 11.91 6.75 11.5C6.75 11.09 7.09 10.75 7.5 10.75H12.5C12.91 10.75 13.25 11.09 13.25 11.5C13.25 11.91 12.91 12.25 12.5 12.25Z" fill="#C42222"/>
</svg>